<?xml version="1.0" standalone="no"?>
<!DOCTYPE svg PUBLIC "-//W3C//DTD SVG 20010904//EN"
 "http://www.w3.org/TR/2001/REC-SVG-20010904/DTD/svg10.dtd">
<svg version="1.0" xmlns="http://www.w3.org/2000/svg"
 width="324.000000pt" height="324.000000pt" viewBox="0 0 324.000000 324.000000"
 preserveAspectRatio="xMidYMid meet">
<metadata>
Created by potrace 1.14, written by Peter Selinger 2001-2017
</metadata>
<g transform="translate(0.000000,324.000000) scale(0.100000,-0.100000)"
fill="#000000" stroke="none">
<path d="M1575 3188 c-82 -3 -172 -11 -200 -18 -27 -6 -57 -11 -65 -11 -40 -2
-200 -58 -200 -70 0 -5 37 -64 83 -132 79 -116 199 -338 247 -457 12 -30 26
-64 31 -75 20 -44 59 -169 54 -173 -3 -3 -1 -10 4 -16 5 -6 12 -27 15 -46 9
-48 11 -53 18 -65 3 -6 45 -9 95 -8 111 1 103 0 103 21 0 10 3 22 6 25 4 4 8
20 9 37 10 127 176 489 339 740 72 111 92 148 83 157 -17 16 -149 59 -227 73
-107 19 -236 25 -395 18z m250 -192 c22 -2 46 -5 53 -5 9 -1 11 -8 7 -23 -10
-33 -67 -152 -75 -158 -7 -5 -80 -156 -85 -175 -1 -5 -8 -23 -15 -40 -7 -16
-13 -33 -12 -37 1 -5 -2 -8 -7 -8 -5 0 -12 -11 -15 -25 -4 -14 -10 -25 -15
-25 -10 0 -29 21 -31 35 -1 9 -67 147 -180 378 -18 37 -30 70 -27 73 3 4 21 8
38 10 18 2 35 6 38 9 5 6 248 -1 326 -9z"/>
<path d="M805 2973 c-110 -67 -219 -155 -317 -256 l-97 -100 66 -95 c190 -279
284 -581 285 -917 1 -255 -64 -537 -168 -736 -13 -25 -21 -49 -17 -53 3 -3 2
-6 -4 -6 -9 0 -40 -55 -31 -55 1 0 -7 -11 -19 -25 -13 -13 -23 -28 -23 -32 0
-5 -5 -14 -10 -21 -6 -7 -26 -34 -46 -60 l-35 -48 113 -112 c122 -120 153
-147 168 -147 6 0 10 -4 10 -8 0 -8 181 -122 194 -122 12 0 78 73 113 126 7
11 24 37 39 58 14 22 30 49 35 60 5 12 18 36 30 55 75 124 217 542 256 751 l9
45 299 0 300 0 6 -25 c4 -14 17 -70 29 -125 27 -121 71 -268 117 -390 40 -104
131 -297 145 -306 5 -3 9 -9 9 -13 -1 -9 12 -39 21 -51 4 -5 32 -43 61 -84 28
-41 59 -79 68 -84 11 -7 33 1 85 34 67 42 80 51 159 114 74 58 245 237 245
255 0 5 -7 15 -15 24 -8 8 -15 19 -15 24 0 6 -4 12 -8 14 -15 6 -121 195 -166
298 -129 293 -162 702 -81 1023 41 161 119 354 184 452 14 22 32 52 39 66 8
15 25 38 39 53 24 26 24 28 7 54 -16 25 -209 219 -248 251 -10 7 -60 42 -112
77 -83 55 -124 70 -124 45 0 -4 -8 -16 -19 -27 -27 -30 -95 -132 -128 -194
-53 -98 -67 -125 -68 -130 -1 -3 -20 -43 -42 -90 -67 -141 -114 -278 -144
-420 -15 -74 -32 -148 -37 -165 l-8 -30 -150 -1 c-83 0 -155 -4 -162 -7 -6 -4
-14 -3 -17 3 -5 8 -11 8 -20 0 -7 -6 -16 -7 -18 -3 -4 7 -62 9 -62 3 0 -1 -39
-3 -86 -4 l-86 -3 -16 92 c-29 164 -110 415 -187 582 -17 35 -30 67 -30 69 0
5 -76 145 -111 204 -8 13 -24 35 -36 49 -13 14 -23 32 -23 39 0 7 -4 10 -10 7
-5 -3 -10 -1 -10 5 0 14 -40 49 -55 49 -5 0 -37 -16 -70 -36z m1759 -233 c57
-38 74 -55 99 -93 l18 -29 -64 -116 c-87 -157 -99 -183 -135 -287 -39 -114
-85 -285 -78 -292 2 -3 1 -15 -4 -28 -22 -58 -31 -326 -16 -465 4 -36 8 -72 8
-80 0 -35 41 -221 65 -295 35 -109 99 -254 167 -375 47 -85 55 -104 45 -121
-12 -24 -110 -119 -122 -119 -5 0 -15 -7 -23 -15 -21 -20 -29 -19 -43 7 -6 13
-19 35 -29 50 -60 91 -157 285 -164 326 -2 9 -6 19 -9 22 -4 3 -9 16 -10 30
-2 14 -10 31 -17 38 -7 8 -10 18 -7 23 3 4 -1 22 -10 39 -8 16 -14 30 -11 30
2 0 -2 20 -9 44 -8 24 -11 47 -8 50 4 3 2 6 -3 6 -6 0 -10 10 -11 23 -1 12 -4
33 -7 47 -7 29 -16 76 -21 105 -1 11 -5 34 -8 50 -7 38 -19 126 -20 143 0 6
-3 13 -6 13 -3 1 -219 3 -478 3 -421 2 -473 0 -474 -14 0 -8 -2 -24 -4 -35 -3
-11 -6 -36 -9 -55 -2 -19 -14 -82 -26 -140 -12 -58 -23 -116 -25 -130 -2 -14
-3 -26 -4 -27 -1 -2 -1 -5 -1 -8 -1 -3 -7 -23 -15 -45 -8 -22 -14 -42 -14 -45
-1 -18 -38 -129 -59 -175 -14 -30 -24 -55 -23 -55 11 0 -154 -293 -172 -306
-5 -3 -9 -10 -10 -15 -2 -12 -30 -5 -39 9 -4 7 -8 9 -8 4 0 -18 -117 97 -125
124 -4 11 11 47 38 96 99 174 165 333 216 518 30 110 44 235 44 410 1 129 -3
183 -18 275 -3 19 -8 46 -10 60 -12 85 -68 274 -101 347 -8 17 -14 34 -14 37
0 12 -57 127 -108 215 -62 109 -62 111 22 188 95 86 97 86 135 23 100 -171
197 -369 193 -392 -1 -5 3 -8 8 -8 5 0 9 -3 9 -7 -1 -5 0 -11 1 -15 1 -5 4
-12 5 -18 1 -5 4 -12 5 -15 3 -5 3 -6 15 -50 4 -16 10 -34 14 -40 3 -5 6 -14
7 -20 1 -5 12 -50 23 -98 12 -48 21 -98 21 -111 0 -12 3 -26 7 -29 3 -4 8 -35
11 -69 2 -34 9 -78 15 -97 l12 -36 474 0 474 0 3 45 c9 110 13 155 14 155 2 0
7 26 15 75 4 24 8 47 10 51 5 7 17 68 18 87 0 6 4 12 9 12 4 0 7 3 6 8 -2 6 8
40 37 132 2 6 10 25 43 105 33 80 107 228 146 290 17 28 38 62 45 78 8 15 17
24 20 19 3 -5 28 -23 55 -42z"/>
<path d="M314 2348 c-85 -129 -166 -324 -193 -468 -20 -106 -22 -126 -26 -240
-6 -239 39 -471 128 -658 17 -37 35 -71 39 -77 4 -5 26 -34 49 -64 l41 -53 25
26 c65 70 77 159 33 251 -13 28 -23 53 -22 58 1 4 -2 7 -6 7 -5 0 -15 19 -22
43 -8 23 -17 47 -21 52 -4 6 -8 13 -8 18 -1 4 -1 8 -2 10 0 1 -2 10 -5 20 -2
9 -6 25 -8 35 -3 9 -5 17 -6 17 -1 0 -3 9 -5 20 -2 11 -6 36 -10 55 -12 71
-16 107 -16 190 0 47 0 85 1 85 1 0 3 16 5 35 3 42 13 93 24 137 5 17 6 34 3
37 -3 3 -1 6 4 6 5 0 10 9 11 19 1 10 10 41 21 68 31 74 35 87 34 96 -1 4 3 7
8 7 5 0 9 3 8 8 0 4 2 14 5 22 10 23 25 64 25 70 0 3 5 17 10 31 8 20 5 36
-17 80 -37 74 -54 99 -67 99 -6 0 -24 -19 -40 -42z"/>
<path d="M2902 2378 c-18 -23 -62 -115 -67 -139 -3 -14 15 -69 45 -139 66
-155 81 -200 100 -305 22 -118 24 -155 15 -265 -10 -120 -11 -133 -17 -150 -6
-14 -25 -93 -34 -134 -2 -10 -8 -24 -15 -32 -6 -8 -8 -14 -4 -14 4 0 2 -7 -5
-15 -7 -8 -10 -15 -6 -15 3 0 -10 -30 -30 -67 -20 -38 -38 -77 -41 -88 -9 -39
-4 -125 9 -125 3 0 10 -10 14 -22 4 -13 17 -35 30 -51 l23 -27 21 22 c50 53
150 229 150 263 0 8 4 15 8 15 4 0 8 8 9 18 0 9 10 49 21 87 57 191 67 452 26
700 -21 130 -90 309 -159 410 -57 84 -73 97 -93 73z"/>
<path d="M1564 1065 c-7 -5 -18 -37 -24 -70 -7 -33 -15 -64 -18 -70 -3 -5 -7
-16 -7 -25 -2 -24 -46 -154 -56 -165 -5 -5 -9 -15 -9 -22 0 -15 -86 -195 -130
-271 -37 -66 -166 -268 -192 -301 -27 -35 -23 -47 27 -70 129 -60 442 -88 695
-62 116 12 293 51 338 75 l24 13 -75 110 c-192 280 -364 673 -376 858 -1 6
-39 10 -92 10 -51 0 -98 -4 -105 -10z m106 -391 c0 -8 5 -14 10 -14 6 0 9 -3
8 -7 -1 -9 0 -13 50 -133 20 -47 46 -101 58 -121 38 -61 105 -199 97 -200
-187 -17 -451 -14 -471 6 -3 2 11 38 31 80 20 41 37 77 37 80 1 2 28 56 60
119 32 62 56 116 53 120 -4 3 -2 6 4 6 6 0 18 20 27 45 16 42 36 53 36 19z"/>
</g>
</svg>
