<svg xmlns="http://www.w3.org/2000/svg" width="512" height="512" viewBox="0 0 428.322 428.322" style="enable-background:new 0 0 512 512" xml:space="preserve"><path d="M235.951 257.951a36.426 36.426 0 0 0-14.542-2.819c-12.91 0-23.377 5.807-23.377 12.969s10.467 12.965 23.377 12.965a36.529 36.529 0 0 0 14.542-2.814 6.01 6.01 0 0 0 3.571-5.5v-9.304a5.995 5.995 0 0 0-3.571-5.497zm28.086-99.417a26.426 26.426 0 0 0-10.546-2.043c-9.359 0-16.951 4.209-16.951 9.398s7.593 9.398 16.951 9.398c3.618.046 7.207-.65 10.546-2.043a4.357 4.357 0 0 0 2.587-3.987v-6.737a4.345 4.345 0 0 0-2.587-3.986z" fill="#d5d6db" data-original="#d5d6db"/><path d="M223.284 134.564a3.315 3.315 0 0 0-2.246-.871h-21.932a3.32 3.32 0 0 0-3.092 4.541l23.589 59.851h73.132z" fill="#2287d5" data-original="#029bc5"/><path d="M398.663 248.217H191.844l-110.19-23.921-50.859-22.689v-13.494l342.944 3.522a58.132 58.132 0 0 1 29.075 8.063 53.665 53.665 0 0 1 10.551 8.256 41.524 41.524 0 0 1 7.128 9.448c2.122 3.903 7.726 8.256 7.83 13.029.009-.001-3.637 18.909-29.66 17.786z" fill="#e1e6e9" data-original="#e1e6e9"/><path d="M199.408 228.659 75.174 299.565a3.55 3.55 0 0 0 1.939 6.529H99.55a31.657 31.657 0 0 0 12.549-2.597l210.415-77.55zM36.988 124.072a4.407 4.407 0 0 0-3.586-1.845H15.535a4.408 4.408 0 0 0-4.195 5.768l19.454 60.119 52.358.539zm.865 74.023L.622 216.14a1.084 1.084 0 0 0 .495 2.063h17.382c.135 0 .27-.025.396-.074l51.17-20.018zm375.521 9.858a53.674 53.674 0 0 0-10.551-8.256 41.052 41.052 0 0 0-16.071 13.776 2.628 2.628 0 0 0 2.266 3.928h31.484a41.524 41.524 0 0 0-7.128-9.448z" fill="#2287d5" data-original="#029bc5"/><path d="M345.519 202.473h19.439v35.57h-19.439z" fill="#d5d6db" data-original="#d5d6db"/><path d="M328.889 206.816a4.29 4.29 0 0 0-4.289 4.289v3.838a4.289 4.289 0 0 0 8.573 0v-3.838a4.288 4.288 0 0 0-4.284-4.289zm-19.325 0a4.29 4.29 0 0 0-4.289 4.289v3.838a4.289 4.289 0 0 0 8.573 0v-3.838a4.29 4.29 0 0 0-4.284-4.289zm-19.331 0a4.289 4.289 0 0 0-4.284 4.289v3.838a4.289 4.289 0 0 0 8.573 0v-3.838a4.289 4.289 0 0 0-4.289-4.289zm-19.325 0a4.289 4.289 0 0 0-4.284 4.289v3.838a4.289 4.289 0 0 0 8.573 0v-3.838a4.29 4.29 0 0 0-4.289-4.289zm-19.326 0a4.289 4.289 0 0 0-4.284 4.289v3.838a4.284 4.284 0 1 0 8.568 0v-3.838a4.284 4.284 0 0 0-4.279-4.289h-.005zm-19.325 0a4.289 4.289 0 0 0-4.284 4.289v3.838a4.284 4.284 0 1 0 8.568 0v-3.838a4.284 4.284 0 0 0-4.279-4.289h-.005zm-19.326 0a4.289 4.289 0 0 0-4.284 4.289v3.838a4.284 4.284 0 0 0 8.567 0v-3.838a4.287 4.287 0 0 0-4.283-4.289zm-19.326 0a4.289 4.289 0 0 0-4.284 4.289v3.838a4.284 4.284 0 0 0 8.567 0v-3.838a4.287 4.287 0 0 0-4.283-4.289zm-19.325 0a4.289 4.289 0 0 0-4.284 4.289v3.838a4.284 4.284 0 0 0 8.567 0v-3.838a4.288 4.288 0 0 0-4.283-4.289zm-19.331 0a4.284 4.284 0 0 0-4.284 4.284v3.843a4.284 4.284 0 0 0 8.567 0v-3.838a4.287 4.287 0 0 0-4.283-4.289zm-19.32 0a4.284 4.284 0 0 0-4.284 4.284v3.843a4.284 4.284 0 0 0 8.567 0v-3.838a4.288 4.288 0 0 0-4.283-4.289z" data-original="#3a556a" fill="#3a556a"/></svg>