<svg xmlns="http://www.w3.org/2000/svg" width="1440" height="560" preserveAspectRatio="none"><g mask="url(&quot;#SvgjsMask1000&quot;)" fill="none"><path d="M874.925 379.506c53.708-3.896 94.212-42.376 122.012-88.494 29.007-48.122 50.613-105.305 24.933-155.282-27.49-53.5-86.797-81.845-146.945-82.173-60.748-.331-118.127 28.684-149.745 80.556-32.968 54.086-40.327 123.074-7.332 177.144 31.872 52.229 96.051 72.676 157.077 68.249" fill="rgba(34, 135, 213, 0.23)" style="animation:float2 4s infinite"/><path d="M1069.879 329.589c38.677-.958 69.556-29.14 87.957-63.173 17.42-32.217 20.677-71.224 1.623-102.502-18.38-30.171-54.251-41.823-89.58-41.885-35.46-.063-70.941 11.748-90.13 41.568-20.787 32.304-24.041 73.611-5.711 107.37 19.153 35.274 55.715 59.616 95.841 58.622M497.383 376.954c31.181-.894 55.455-23.434 71.415-50.236 16.434-27.597 26.086-60.492 11.591-89.155-15.797-31.238-48.056-54.031-83.006-52.061-32.55 1.835-52.703 31.924-68.239 60.586-14.574 26.887-24.783 57.822-10.643 84.94 15.078 28.915 46.285 46.861 78.882 45.926" fill="rgba(34, 135, 213, 0.23)" class="triangle-float3"/><path d="M420.497 506.707c54.3-1.626 110.694-14.438 139.502-60.495 30.364-48.545 25.527-109.741-1.42-160.263-28.792-53.981-76.903-100.952-138.082-101.282-61.62-.333-110.077 46.298-140.69 99.777-30.379 53.069-46.779 118.912-14.074 170.58 31.178 49.255 96.497 53.428 154.764 51.683" fill="rgba(34, 135, 213, 0.23)" class="triangle-float3"/></g><defs><style>@keyframes float1{0%,to{transform:translate(0,0)}50%{transform:translate(-10px,0)}}@keyframes float2{0%,to{transform:translate(0,0)}50%{transform:translate(-5px,-5px)}}@keyframes float3{0%,to{transform:translate(0,0)}50%{transform:translate(0,-10px)}}.triangle-float3{animation:float3 6s infinite}</style><mask id="SvgjsMask1000"><path fill="#fff" d="M0 0h1440v560H0z"/></mask></defs></svg>