<svg xmlns="http://www.w3.org/2000/svg" width="512" height="512" viewBox="0 0 64 64" style="enable-background:new 0 0 512 512" xml:space="preserve"><circle cx="27.82" cy="45.04" fill="#2287d5" r="6.675" data-original="#404049"/><path d="M27.828 52.748c-3.15 0-6.113-1.946-7.25-5.073-1.453-3.991.612-8.422 4.605-9.878 3.999-1.45 8.426.615 9.88 4.607 1.453 3.991-.614 8.422-4.606 9.878a7.703 7.703 0 0 1-2.63.466zm-.015-13.352c-.64 0-1.29.11-1.924.34-2.923 1.065-4.436 4.31-3.371 7.234s4.312 4.433 7.232 3.373a5.653 5.653 0 0 0 3.373-7.234 5.658 5.658 0 0 0-5.31-3.713z" fill="#131319" data-original="#131319"/><path d="m32.358 60.821-2.663.97a2.52 2.52 0 0 1-2.867-.842L12.876 42.615l11.715-4.264 9.175 19.007a2.52 2.52 0 0 1-1.408 3.463z" fill="#dedeea" data-original="#dedeea"/><path d="M29.433 48.39c-3.922.763-6.338 3.922-7.205 6.523l-3.138-4.129-6.214-8.175 11.706-4.253 4.728 9.765z" opacity=".1" data-original="#000000"/><path d="M28.82 62.985c-1.086 0-2.131-.5-2.818-1.407L12.061 43.24a1.03 1.03 0 0 1 .468-1.594l11.705-4.26a1.036 1.036 0 0 1 1.282.52L34.7 56.905l.002.004c.434.903.464 1.957.083 2.89a3.547 3.547 0 0 1-2.064 1.995l-2.675.973a3.56 3.56 0 0 1-1.224.218zm-14.269-19.88L27.646 60.33c.398.524 1.077.72 1.695.498l2.673-.974c.392-.143.698-.44.859-.834.16-.394.15-.837-.032-1.216l-8.778-18.16z" fill="#131319" data-original="#131319"/><path d="M36.843 6.217c-6.316 7.94-15.721 14.288-23.616 17.94l4.177 11.476 4.177 11.477c8.395-2.277 19.68-3.46 29.623-1.437-1.794-7.879-3.49-14.011-5.759-20.246s-4.912-12.022-8.601-19.21z" fill="#2287d5" data-original="#f0f0fc"/><path d="m17.429 48.62 4.152-1.51-8.354-22.953-4.152 1.512c-6.338 2.306-9.606 9.315-7.3 15.653 2.308 6.338 9.316 9.606 15.654 7.299z" fill="#175a8e" data-original="#f7524b"/><path d="M51.218 45.666c-9.95-2.023-21.242-.825-29.624 1.445l-4.15 1.507a12.378 12.378 0 0 1-4.19.744A12.242 12.242 0 0 1 1.776 41.33a12.231 12.231 0 0 1 2.147-12.035c2.952 5.573 8.505 8.877 14.926 10.28 9.682 2.127 21.387-.124 29.355-5.656 1.053 3.592 2.023 7.411 3.014 11.746z" opacity=".1" data-original="#000000"/><g fill="#131319"><path d="M13.266 50.391c-5.413 0-10.505-3.345-12.46-8.717-1.21-3.325-1.053-6.921.442-10.128s4.15-5.637 7.474-6.847l4.152-1.511a1.033 1.033 0 0 1 1.323.617l8.354 22.951a1.03 1.03 0 0 1-.617 1.323l-4.152 1.512c-1.49.542-3.016.8-4.516.8zm4.163-1.77h.02zM12.61 25.48l-3.182 1.157C6.62 27.66 4.38 29.713 3.118 32.42s-1.393 5.743-.372 8.55c2.107 5.79 8.537 8.791 14.33 6.682l3.183-1.159z" data-original="#131319"/><path d="M21.581 48.141a1.03 1.03 0 0 1-.97-.68l-8.354-22.95a1.031 1.031 0 0 1 .536-1.29c9.12-4.218 17.809-10.816 23.243-17.647a1.035 1.035 0 0 1 1.728.171c3.899 7.6 6.487 13.38 8.65 19.33 2.166 5.948 3.9 12.04 5.797 20.369a1.03 1.03 0 0 1-1.212 1.242c-8.548-1.742-19.447-1.21-29.148 1.419-.09.024-.181.036-.27.036zM14.52 24.69l7.71 21.181c9.174-2.349 19.3-2.895 27.617-1.5-1.742-7.465-3.371-13.096-5.37-18.59s-4.372-10.855-7.837-17.693c-5.472 6.41-13.581 12.504-22.12 16.602z" data-original="#131319"/></g><path d="M55.186 47.531a3.114 3.114 0 0 1-3.99-1.86L36.839 6.224a3.114 3.114 0 1 1 5.851-2.13L57.047 43.54a3.114 3.114 0 0 1-1.86 3.991z" fill="#175a8e" data-original="#f7524b"/><path d="M54.118 48.752a4.107 4.107 0 0 1-1.75-.391 4.106 4.106 0 0 1-2.141-2.339L35.869 6.578a4.152 4.152 0 0 1 2.477-5.313 4.154 4.154 0 0 1 5.315 2.476l14.356 39.447a4.113 4.113 0 0 1-.14 3.171A4.106 4.106 0 0 1 55.54 48.5c-.464.17-.944.252-1.421.252zM39.762 3.079c-.236 0-.476.04-.71.125a2.088 2.088 0 0 0-1.244 2.67l14.358 39.443a2.074 2.074 0 0 0 2.667 1.244 2.074 2.074 0 0 0 1.244-2.668L41.721 4.448a2.088 2.088 0 0 0-1.96-1.369zM53.358 15.228a1.032 1.032 0 0 1-.847-1.623L55.025 10a1.032 1.032 0 1 1 1.693 1.181l-2.514 3.604a1.034 1.034 0 0 1-.846.442zM63.964 30.36a1.033 1.033 0 0 0-.728-1.266l-4.242-1.145a1.038 1.038 0 0 0-1.264.728c-.149.55.178 1.116.728 1.266l4.242 1.145a1.03 1.03 0 0 0 1.264-.728zm-7.568-7.82 4.149-1.51a1.03 1.03 0 1 0-.706-1.94l-4.149 1.51a1.03 1.03 0 1 0 .706 1.94z" fill="#131319" data-original="#131319"/></svg>