<svg xmlns="http://www.w3.org/2000/svg" width="1440" height="560" preserveAspectRatio="none"><g mask="url(&quot;#a&quot;)" fill="none"><path d="M1560 560H0V302.96q76.06-43.94 120 32.12 13.38-58.62 72-45.24 67.31-52.7 120 14.61 88.13-31.87 120 56.26 51.2-68.8 120-17.59 6.97-65.03 72-58.06 38.62-33.38 72 5.24 45.03-26.97 72 18.06 76.74-43.26 120 33.47 66.41-53.59 120 12.82 31.2-88.8 120-57.61 70.47-49.53 120 20.94 42.53-77.48 120-34.95 58.63-13.37 72 45.27 77.78-42.22 120 35.56z" fill="#182f5d"/><path d="M1464 560H0V428.91q29.06-90.94 120-61.88 74.16-45.84 120 28.32 53.51-18.48 72 35.03 25.19-94.81 120-69.62 70.81-49.19 120 21.63 81.88-38.12 120 43.76 26.02-93.98 120-67.95 81.22-38.78 120 42.45 83.58-36.42 120 47.16 14.3-105.7 120-91.41 68.16-51.84 120 16.32 83.9-36.09 120 47.81 47.02-24.98 72 22.04z" fill="#25467d"/><path d="M1488 560H0V449.49q55.22-16.78 72 38.43 26.11-93.89 120-67.78 42.81-29.19 72 13.62 46.22-25.78 72 20.44 64.51-7.49 72 57.02 16.14-55.86 72-39.72 24.5-47.5 72-23.01 84.99-35.01 120 49.97 43.38-76.62 120-33.24 59.49-12.51 72 46.98 21.97-98.02 120-76.05 29-43 72-13.99 87.02-32.98 120 54.04 78.96-41.04 120 37.93 26.56-45.44 72-18.89 29.26-90.74 120-61.48z" fill="#356cb1"/><path d="M1488 560H0v-35.28q65.33-54.67 120 10.66 43.23-76.77 120-33.54 86.59-33.41 120 53.18 24.64-47.36 72-22.72 55.27-16.73 72 38.53 8.17-63.83 72-55.66 30.5-41.5 72-11 63.3-8.7 72 54.6 44.22-27.78 72 16.43 27.02-92.97 120-65.95 52.28-67.72 120-15.43 60.52-11.48 72 49.03 52.63-67.37 120-14.74 52.29-67.71 120-15.42 54.13-17.87 72 36.26 30.45-41.55 72-11.1z" fill="#fff"/></g><defs><mask id="a"><path fill="#fff" d="M0 0h1440v560H0z"/></mask></defs></svg>