<svg xmlns="http://www.w3.org/2000/svg" width="1440" height="560" preserveAspectRatio="none"><g mask="url(&quot;#a&quot;)" fill="none" stroke="rgba(34, 135, 213, 1)" stroke-width="2"><path d="M802.34 649.47c91.58-21.48 33.32-247.66 265.94-266.14 232.63-18.48 388.21-214.2 531.89-218.4"/><path d="M442.12 623.36c172.68-38.68 241.57-491.23 506.26-494.67 264.7-3.44 371.57 181.94 506.27 184.8"/><path d="M501.67 627.76c150.55-6.2 253.27-247.99 545.95-255.31 292.68-7.32 403.16-166.11 545.95-168"/><path d="M382.54 633.66c173.22-6.47 288.96-273.79 632.18-284.75 343.23-10.96 462.11-247.41 632.19-252"/><path d="M715.19 564.01c103.67-25.42 41.03-287.8 298.21-305.55 257.18-17.75 438.6-204.28 596.42-207.2"/></g><defs><mask id="a"><path fill="#fff" d="M0 0h1440v560H0z"/></mask></defs></svg>