<?xml version="1.0" encoding="utf-8"?>
<!-- Generator: Adobe Illustrator 26.0.1, SVG Export Plug-In . SVG Version: 6.00 Build 0)  -->
<svg version="1.1" id="Layer_1" xmlns="http://www.w3.org/2000/svg" xmlns:xlink="http://www.w3.org/1999/xlink" x="0px" y="0px"
	 viewBox="0 0 1000 1000" style="enable-background:new 0 0 1000 1000;" xml:space="preserve">
<style type="text/css">
	.st0{fill:#27306B;}
	.st1{fill:#58C1A7;}
	.st2{fill:#ED1C24;}
	.st3{fill:#4B1B54;}
	.st4{fill:#9D57A2;}
	.st5{fill:#219EBC;}
	.st6{fill:#1C3557;}
	.st7{fill:#8FCAE5;}
	.st8{fill-rule:evenodd;clip-rule:evenodd;fill:#27306B;}
	.st9{fill:#FFFFFF;}
	.st10{fill-rule:evenodd;clip-rule:evenodd;fill:#FFFFFF;}
	.st11{fill-rule:evenodd;clip-rule:evenodd;fill:url(#SVGID_1_);}
	.st12{fill-rule:evenodd;clip-rule:evenodd;fill:url(#SVGID_00000125581070991990330950000005991028414100136627_);}
	.st13{fill-rule:evenodd;clip-rule:evenodd;fill:url(#SVGID_00000075845922860371917630000013623453021362969527_);}
	.st14{fill-rule:evenodd;clip-rule:evenodd;fill:url(#SVGID_00000151525704492128693570000010925973136182896538_);}
	.st15{fill-rule:evenodd;clip-rule:evenodd;fill:url(#SVGID_00000067213049624502507000000002684163154942202539_);}
	.st16{filter:url(#Adobe_OpacityMaskFilter);}
	.st17{filter:url(#Adobe_OpacityMaskFilter_00000073711653873091701770000012516232948878241977_);}
	
		.st18{mask:url(#SVGID_00000061454037485846255310000013469727803205792416_);fill-rule:evenodd;clip-rule:evenodd;fill:url(#SVGID_00000084520126930378761510000001339585151458248892_);}
	.st19{fill-rule:evenodd;clip-rule:evenodd;fill:url(#SVGID_00000157288022750462688270000012559566436487419826_);}
	.st20{fill:url(#SVGID_00000176026787489179855500000018358631091933974428_);}
	.st21{fill:url(#SVGID_00000170971031963708811380000017574217900974506635_);}
	.st22{fill:url(#SVGID_00000107582776579871924230000012477084350204049813_);}
	.st23{fill:url(#SVGID_00000023240267123070977800000005363405354464791221_);}
	.st24{fill:url(#SVGID_00000178926217377033495180000018435126709481579149_);}
	.st25{filter:url(#Adobe_OpacityMaskFilter_00000003805465049003262630000004951378916244581304_);}
	.st26{filter:url(#Adobe_OpacityMaskFilter_00000041985781447556028040000006454494582747007621_);}
	
		.st27{mask:url(#SVGID_00000061473480104464157750000002525712077680010412_);fill-rule:evenodd;clip-rule:evenodd;fill:url(#SVGID_00000097469507208592721940000015715371678490597792_);}
	.st28{filter:url(#Adobe_OpacityMaskFilter_00000109733520190234403260000000888252565892754312_);}
	.st29{filter:url(#Adobe_OpacityMaskFilter_00000022554098991368794410000002778498469832504738_);}
	
		.st30{mask:url(#SVGID_00000093888942491342861600000008698550179935622790_);fill-rule:evenodd;clip-rule:evenodd;fill:url(#SVGID_00000146473111057116208030000004327606779650588556_);}
	.st31{fill:#213366;}
	.st32{fill-rule:evenodd;clip-rule:evenodd;fill:#213366;}
	.st33{fill:#209AD6;}
	.st34{fill:#263B82;}
	.st35{fill-rule:evenodd;clip-rule:evenodd;fill:#263B82;}
	.st36{fill-rule:evenodd;clip-rule:evenodd;fill:#209AD6;}
	.st37{fill:#27306B;stroke:#2E3192;stroke-width:0.1069;stroke-miterlimit:10;}
	.st38{fill:#27306B;stroke:#2E3192;stroke-width:0.123;stroke-miterlimit:10;}
	.st39{fill:#27306B;stroke:#2E3192;stroke-width:0.1514;stroke-miterlimit:10;}
	.st40{filter:url(#Adobe_OpacityMaskFilter_00000002385441168523541490000012026600291179853710_);}
	.st41{filter:url(#Adobe_OpacityMaskFilter_00000093869650249173537820000007116598476368473736_);}
	
		.st42{mask:url(#SVGID_00000060020861337053847870000018406318531377377719_);fill-rule:evenodd;clip-rule:evenodd;fill:url(#SVGID_00000018205865178322859410000000182710645013343644_);}
</style>
<g>
	<g>
		<path class="st33" d="M484.5,455.6h8.2v46.8h-8.2v-20.3h-23.8v20.3h-8.2v-46.8h8.2v19.5h23.8V455.6z"/>
		<path class="st33" d="M526.7,455.6l17.3,46.3v0.5h-8.7l-4.4-12.4h-18.8l-4.3,12.4h-8.5v-0.5l17.2-46.3H526.7z M514.4,483.4h14.1
			l-7.1-20.1L514.4,483.4z"/>
		<path class="st33" d="M568.1,477.9l20.7,24.1v0.5h-10l-19.9-23.6v23.6h-8.2v-46.8h8.2v22l19.7-22h9.3v0.5L568.1,477.9z"/>
		<path class="st33" d="M617.9,455.6l17.3,46.3v0.5h-8.7l-4.4-12.4h-18.8l-4.3,12.4h-8.5v-0.5l17.2-46.3H617.9z M605.7,483.4h14.1
			l-7.1-20.1L605.7,483.4z"/>
		<path class="st33" d="M690.7,455.6v46.8h-8.2v-32.9c-0.8,2.2-1.8,4.4-2.9,6.6l-9.8,19.4h-7l-9.6-19.4c-1.5-3-2.6-5.2-3.1-6.8v33
			h-8.2v-46.8h9.2l10.5,20.6c2.4,4.9,4.1,8.6,4.9,11.2c0.9-2.8,2.5-6.6,4.9-11.2l10.5-20.6H690.7z"/>
		<path class="st33" d="M701.9,502.4v-46.8h8.2v46.8H701.9z"/>
	</g>
	<g>
		<path class="st34" d="M469.7,522.4c2.3,1.9,3.4,5,3.4,9.3c0,2.7-0.6,5-1.7,6.8c-1.2,1.8-2.8,3.2-4.8,4c-2,0.9-4.3,1.3-6.9,1.3
			h-7.2v-24.3h7.7C464.2,519.5,467.4,520.5,469.7,522.4z M464.3,539.5c1.4-0.5,2.4-1.3,3.2-2.6c0.7-1.2,1.1-3,1.1-5.2
			c0-3-0.7-5.2-2.1-6.5c-1.4-1.3-3.5-2-6.4-2h-3.5v17.1h2.4C461.2,540.2,462.9,540,464.3,539.5z"/>
		<path class="st34" d="M481.8,540.3h11.6v3.6h-15.9v-24.3h15.7v3.5h-11.4v6.7h9.9l-0.5,3.5h-9.4V540.3z"/>
		<path class="st34" d="M500.1,543.6c-1.5-0.5-2.9-1.2-4.1-2.1l2-3c1.1,0.8,2.3,1.3,3.5,1.7c1.2,0.4,2.4,0.5,3.5,0.5
			c1.7,0,2.9-0.3,3.8-0.8c0.9-0.6,1.3-1.4,1.3-2.5c0-0.7-0.2-1.2-0.5-1.7c-0.3-0.5-0.8-0.9-1.5-1.2c-0.7-0.4-1.8-0.8-3.2-1.3
			l-0.7-0.3c-1.6-0.6-2.9-1.2-3.8-1.7c-1-0.6-1.7-1.3-2.3-2.2c-0.6-0.9-0.9-2-0.9-3.4c0-1.5,0.4-2.7,1.2-3.7c0.8-1,1.9-1.7,3.2-2.2
			c1.3-0.5,2.7-0.7,4.2-0.7c3.1,0,5.8,0.9,8.4,2.6l-2,3c-1.1-0.7-2.2-1.2-3.2-1.5c-1-0.3-2.1-0.5-3.3-0.5c-1.3,0-2.3,0.2-3.1,0.7
			c-0.8,0.5-1.1,1.2-1.1,2.2c0,0.5,0.1,1,0.4,1.4c0.3,0.4,0.8,0.8,1.4,1.1c0.7,0.4,1.6,0.8,2.9,1.2l0.8,0.3c1.6,0.6,3,1.1,4,1.7
			c1,0.5,1.9,1.3,2.6,2.3c0.7,1,1.1,2.2,1.1,3.7c0,1.6-0.4,2.9-1.2,4c-0.8,1.1-1.9,1.9-3.3,2.4c-1.4,0.5-3,0.8-4.9,0.8
			C503.3,544.4,501.6,544.1,500.1,543.6z"/>
		<path class="st34" d="M518.9,543.9v-24.3h4.3v24.3H518.9z"/>
		<path class="st34" d="M548.3,530.2v12c-1.6,0.8-3.1,1.3-4.4,1.7c-1.4,0.4-2.9,0.5-4.5,0.5c-2.7,0-5-0.5-6.7-1.6
			c-1.7-1.1-3-2.5-3.8-4.4c-0.8-1.9-1.2-4-1.2-6.6c0-2.9,0.5-5.3,1.6-7.2c1.1-1.9,2.5-3.3,4.3-4.2c1.8-0.9,3.8-1.3,6-1.3
			c3.1,0,5.8,0.8,8.2,2.3l-1.8,3.2c-1.9-1.2-3.9-1.8-6.1-1.8c-2.6,0-4.6,0.8-5.8,2.4c-1.2,1.6-1.9,3.8-1.9,6.6c0,3,0.6,5.2,1.8,6.8
			c1.2,1.5,3.1,2.3,5.7,2.3c1.5,0,3-0.3,4.5-0.8v-6.2h-5.8l0.5-3.5H548.3z"/>
		<path class="st34" d="M573.9,519.5v24.3h-4.8l-9.1-13.8c-0.1-0.2-0.4-0.6-0.7-1.1c-0.4-0.5-0.7-1.1-1-1.5c-0.3-0.5-0.5-1-0.8-1.5
			v18h-4.3v-24.3h4.7l9.6,14.5c0.1,0.2,0.3,0.5,0.7,1c0.3,0.5,0.6,0.9,0.8,1.4c0.2,0.4,0.5,0.8,0.6,1.2v-18.1H573.9z"/>
		<path class="st34" d="M581.8,543.6c-1.5-0.5-2.9-1.2-4.1-2.1l2-3c1.1,0.8,2.3,1.3,3.5,1.7c1.2,0.4,2.4,0.5,3.5,0.5
			c1.7,0,2.9-0.3,3.8-0.8c0.9-0.6,1.3-1.4,1.3-2.5c0-0.7-0.2-1.2-0.5-1.7c-0.3-0.5-0.8-0.9-1.5-1.2c-0.7-0.4-1.8-0.8-3.2-1.3
			l-0.7-0.3c-1.6-0.6-2.9-1.2-3.8-1.7c-1-0.6-1.7-1.3-2.3-2.2c-0.6-0.9-0.9-2-0.9-3.4c0-1.5,0.4-2.7,1.2-3.7c0.8-1,1.9-1.7,3.2-2.2
			c1.3-0.5,2.7-0.7,4.2-0.7c3.1,0,5.8,0.9,8.4,2.6l-2,3c-1.1-0.7-2.2-1.2-3.2-1.5c-1-0.3-2.1-0.5-3.3-0.5c-1.3,0-2.3,0.2-3.1,0.7
			c-0.8,0.5-1.1,1.2-1.1,2.2c0,0.5,0.1,1,0.4,1.4c0.3,0.4,0.8,0.8,1.4,1.1c0.7,0.4,1.6,0.8,2.9,1.2l0.8,0.3c1.6,0.6,3,1.1,4,1.7
			c1,0.5,1.9,1.3,2.6,2.3c0.7,1,1.1,2.2,1.1,3.7c0,1.6-0.4,2.9-1.2,4c-0.8,1.1-1.9,1.9-3.3,2.4c-1.4,0.5-3,0.8-4.9,0.8
			C585,544.4,583.3,544.1,581.8,543.6z"/>
	</g>
	<path class="st36" d="M407.8,526.6c-6.7-17.4-6.5-35.8,0-53.1c2.3-6.2,7.8-15.9,11.7-19.8c-3.6-7.3-13.1-12.8-21.1-18.4
		c-6.8,4.6-16.4,24.9-19.5,35.1c-1.3,4.4-2.1,10.8-3.5,14.9l-26.8,0.4c-1.6-15.1-13.5-45.3-22.8-50.4c-4.7,3.9-17,10.3-21,18.5
		c4.1,4.2,9,13.2,11.7,19.8c3.2,8,4.9,17,5,26.5c0,17.8-7.5,36.8-16.6,46.4c3.4,6.6,13.3,13.4,21.1,18.3c11.2-8.7,20-34.9,22.8-50.6
		l26.8,0c2,15.3,12.5,43.6,22.9,50.7c6.4-5,16.8-10.3,21.1-18.5C415.8,542.7,410.2,532.6,407.8,526.6 M383.6,494.5
		c1.3-19.4,7.8-34.3,16.3-47.4c2.4,1.1,6.6,4.7,8,7.2c-4.2,7.9-6.1,9.3-9.5,19.3c-2.4,7-4.4,16.4-4.4,24.2c0,21.8,4.7,32,13.9,47.9
		c-1.6,3-5.3,5.6-8,7.2c-10-14.1-13.7-27.1-16.5-47.6l-42.4,0c-3.3,21.9-6.1,31.7-16.6,47.6c-2.3-1-6.6-4.7-8-7.2
		c3.7-6.5,6.7-11.1,9.5-19.3c8.5-24.3,4.4-51.3-9.5-72.1c1.4-2.6,5.7-6.1,8.1-7.2c4.1,6.5,8,13,10.9,21.4c1.4,4,2.7,8.4,3.5,12.7
		c0.5,2.5,0.9,4.6,1.1,7.1c0.4,3.4,0.1,5.8,2.2,6.3H383.6z"/>
	<path class="st35" d="M362.2,458.6l-11.2-22.9c3.9-1.5,17.2-0.8,21.8,0c0.3,1.9-4.2,9-5.3,11.4
		C366.2,449.7,363.4,456.8,362.2,458.6 M366.8,475.9c3.4-22.3,19.5-41.5,20.9-45.2c-10.5-6.4-40.4-5.9-51.1,0
		c1.2,2.7,4.4,6.4,6.4,9.6c6,9.9,12.8,23.8,14.6,35.6L366.8,475.9z"/>
	<path class="st35" d="M350.9,564.3l11.2-22.9c1.8,2.6,3.5,8.4,5.2,11.7c2,3.9,4.6,7.7,6,11.3C364.6,565.2,359.7,565.4,350.9,564.3
		 M366.8,524.1l-9.2,0c-3.9,23.4-18.9,40.3-20.9,45.2c10.9,6.6,37.6,5.8,51.2,0.2c-1.4-3.1-4.4-6.3-6.5-9.8
		C375.3,549.6,368.6,536.1,366.8,524.1z"/>
	<path class="st35" d="M302.1,537.2c-11.1-10.7-15.9-38.6-8.8-58.3c1.8-4.9,6.1-13.4,8.8-16.2c1.1,1.2,3.7,5.8,4,7.4
		c1,4.7-15,22.3-3.4,50.4C304.5,525,309.4,529.2,302.1,537.2"/>
	<path class="st35" d="M420.6,462.7c16.2,17,16,57.8,0,74.6c-7.5-8.1-2.2-12.8-0.8-16.3c11.8-28.7-3.8-46.3-3.3-50.4
		C416.7,468.7,419.5,463.9,420.6,462.7"/>
</g>
</svg>
