<svg width="682.667" height="682.667" xmlns="http://www.w3.org/2000/svg"><defs><clipPath clipPathUnits="userSpaceOnUse" id="a"><path d="M0 512h512V0H0Z"/></clipPath></defs><g clip-path="url(#a)" transform="matrix(1.33333 0 0 -1.33333 0 682.667)"><path d="M0 0c-.24-.511-6.031-12.683-13.724-26.076-15.237-26.518-24.143-33.71-29.523-36.806-6.962-4.027-14.696-6.081-22.53-6.081A45.52 45.52 0 0 0-77.548-67.4c-11.661 3.126-21.408 10.599-27.449 21.058l39.15 43.577 65.286 16.72A15.05 15.05 0 0 0 0 0" style="fill:#23272b;fill-opacity:1;fill-rule:nonzero;stroke:none" transform="translate(321.847 174.121)"/><path d="m0 0-15.217-76.326-52.744-32.437c-19.705 12.332-43.006 19.484-67.971 19.484l-43.076 60.439 43.076 67.789C-86.003 38.949-39.4 24.684 0 0" style="fill:#fca400;fill-opacity:1;fill-rule:nonzero;stroke:none" transform="translate(391.932 360.382)"/><path d="M0 0v-128.228c-24.964 0-48.266-7.153-67.971-19.485l-57.632 43.668-10.329 65.096C-96.532-14.265-49.929 0 0 0" style="fill:#fcc100;fill-opacity:1;fill-rule:nonzero;stroke:none" transform="translate(256 399.332)"/><path d="M0 0c-32.578-20.394-55.335-55.032-59.554-95.19-.807-7.686-7.221-13.554-14.949-13.554h-98.494c-8.637 0-15.536 7.269-15.009 15.891 5.201 85.062 51.869 158.924 120.04 201.618z" style="fill:#ff6836;fill-opacity:1;fill-rule:nonzero;stroke:none" transform="translate(188.034 251.62)"/><path d="M0 0h-98.493c-7.728 0-14.142 5.868-14.95 13.553-4.219 40.159-26.976 74.797-59.554 95.191l67.966 108.765C-36.86 174.815 9.808 100.953 15.009 15.89 15.536 7.269 8.638 0 0 0" style="fill:#4aca7b;fill-opacity:1;fill-rule:nonzero;stroke:none" transform="translate(496.963 142.875)"/><path d="M0 0c-.561.05-13.995 1.122-29.452 1.152-30.575.09-41.264-4.057-46.633-7.163-10.459-6.03-17.942-15.778-21.068-27.449-3.125-11.66-1.522-23.842 4.518-34.3L11.801-7.463A15.04 15.04 0 0 1 0 0" style="fill:#414952;fill-opacity:1;fill-rule:nonzero;stroke:none" transform="translate(309.485 195.54)"/></g></svg>