<svg xmlns="http://www.w3.org/2000/svg" version="1.1" xmlns:xlink="http://www.w3.org/1999/xlink" xmlns:svgjs="http://svgjs.com/svgjs" width="1400" height="560" preserveAspectRatio="none" viewBox="0 0 1400 560"><g mask="url(&quot;#SvgjsMask1041&quot;)" fill="none"><path d="M4 117L3 -53" stroke-width="8" stroke="url(#SvgjsLinearGradient1042)" stroke-linecap="round" class="Up"></path><path d="M1004 259L1003 510" stroke-width="6" stroke="url(#SvgjsLinearGradient1043)" stroke-linecap="round" class="Down"></path><path d="M370 475L369 65" stroke-width="8" stroke="url(#SvgjsLinearGradient1043)" stroke-linecap="round" class="Down"></path><path d="M387 129L386 -46" stroke-width="10" stroke="url(#SvgjsLinearGradient1042)" stroke-linecap="round" class="Up"></path><path d="M363 540L362 127" stroke-width="10" stroke="url(#SvgjsLinearGradient1043)" stroke-linecap="round" class="Down"></path><path d="M527 102L526 -66" stroke-width="8" stroke="url(#SvgjsLinearGradient1043)" stroke-linecap="round" class="Down"></path><path d="M508 322L507 740" stroke-width="8" stroke="url(#SvgjsLinearGradient1043)" stroke-linecap="round" class="Down"></path><path d="M1395 182L1394 563" stroke-width="6" stroke="url(#SvgjsLinearGradient1042)" stroke-linecap="round" class="Up"></path><path d="M1369 312L1368 506" stroke-width="8" stroke="url(#SvgjsLinearGradient1043)" stroke-linecap="round" class="Down"></path><path d="M372 544L371 269" stroke-width="6" stroke="url(#SvgjsLinearGradient1042)" stroke-linecap="round" class="Up"></path><path d="M1095 458L1094 723" stroke-width="10" stroke="url(#SvgjsLinearGradient1042)" stroke-linecap="round" class="Up"></path><path d="M1383 90L1382 -283" stroke-width="8" stroke="url(#SvgjsLinearGradient1042)" stroke-linecap="round" class="Up"></path><path d="M92 174L91 358" stroke-width="10" stroke="url(#SvgjsLinearGradient1042)" stroke-linecap="round" class="Up"></path><path d="M1365 554L1364 335" stroke-width="8" stroke="url(#SvgjsLinearGradient1042)" stroke-linecap="round" class="Up"></path><path d="M245 240L244 455" stroke-width="10" stroke="url(#SvgjsLinearGradient1043)" stroke-linecap="round" class="Down"></path><path d="M374 414L373 654" stroke-width="6" stroke="url(#SvgjsLinearGradient1042)" stroke-linecap="round" class="Up"></path><path d="M765 438L764 799" stroke-width="10" stroke="url(#SvgjsLinearGradient1042)" stroke-linecap="round" class="Up"></path><path d="M481 103L480 427" stroke-width="8" stroke="url(#SvgjsLinearGradient1042)" stroke-linecap="round" class="Up"></path><path d="M927 159L926 -161" stroke-width="10" stroke="url(#SvgjsLinearGradient1043)" stroke-linecap="round" class="Down"></path><path d="M1360 253L1359 557" stroke-width="6" stroke="url(#SvgjsLinearGradient1043)" stroke-linecap="round" class="Down"></path><path d="M686 514L685 213" stroke-width="6" stroke="url(#SvgjsLinearGradient1043)" stroke-linecap="round" class="Down"></path><path d="M455 407L454 17" stroke-width="10" stroke="url(#SvgjsLinearGradient1042)" stroke-linecap="round" class="Up"></path><path d="M1213 285L1212 70" stroke-width="8" stroke="url(#SvgjsLinearGradient1043)" stroke-linecap="round" class="Down"></path><path d="M1151 295L1150 502" stroke-width="8" stroke="url(#SvgjsLinearGradient1042)" stroke-linecap="round" class="Up"></path><path d="M765 328L764 652" stroke-width="10" stroke="url(#SvgjsLinearGradient1043)" stroke-linecap="round" class="Down"></path><path d="M1230 2L1229 -254" stroke-width="10" stroke="url(#SvgjsLinearGradient1043)" stroke-linecap="round" class="Down"></path><path d="M952 286L951 603" stroke-width="8" stroke="url(#SvgjsLinearGradient1042)" stroke-linecap="round" class="Up"></path><path d="M167 286L166 57" stroke-width="10" stroke="url(#SvgjsLinearGradient1043)" stroke-linecap="round" class="Down"></path><path d="M618 5L617 212" stroke-width="10" stroke="url(#SvgjsLinearGradient1042)" stroke-linecap="round" class="Up"></path><path d="M991 9L990 -388" stroke-width="8" stroke="url(#SvgjsLinearGradient1042)" stroke-linecap="round" class="Up"></path><path d="M455 368L454 13" stroke-width="6" stroke="url(#SvgjsLinearGradient1042)" stroke-linecap="round" class="Up"></path><path d="M619 273L618 112" stroke-width="10" stroke="url(#SvgjsLinearGradient1042)" stroke-linecap="round" class="Up"></path><path d="M755 471L754 63" stroke-width="8" stroke="url(#SvgjsLinearGradient1043)" stroke-linecap="round" class="Down"></path><path d="M716 175L715 -16" stroke-width="8" stroke="url(#SvgjsLinearGradient1042)" stroke-linecap="round" class="Up"></path><path d="M217 455L216 153" stroke-width="8" stroke="url(#SvgjsLinearGradient1043)" stroke-linecap="round" class="Down"></path></g><defs><mask id="SvgjsMask1041"><rect width="1400" height="560" fill="#ffffff"></rect></mask><linearGradient x1="0%" y1="100%" x2="0%" y2="0%" id="SvgjsLinearGradient1042"><stop stop-color="rgba(28, 83, 142, 0)" offset="0"></stop><stop stop-color="#1c538e" offset="1"></stop></linearGradient><linearGradient x1="0%" y1="0%" x2="0%" y2="100%" id="SvgjsLinearGradient1043"><stop stop-color="rgba(28, 83, 142, 0)" offset="0"></stop><stop stop-color="#1c538e" offset="1"></stop></linearGradient></defs></svg>