<svg xmlns="http://www.w3.org/2000/svg" width="1440" height="250" preserveAspectRatio="none"><g mask="url(&quot;#a&quot;)" fill="none"><path d="M20 250 270 0h268.5l-250 250z" fill="url(#b)"/><path d="m284.6 250 250-250h139.5l-250 250zM503.2 250l250-250h180l-250 250zM728.8 250l250-250h256.5l-250 250z" fill="url(#b)"/><path d="M1398 250 1148 0H807.5l250 250z" fill="url(#c)"/><path d="M1157.4 250 907.4 0h-76.5l250 250zM929.8 250 679.8 0H504.3l250 250zM723.2 250 473.2 0h-243l250 250z" fill="url(#c)"/><path d="M1200.89 250 1440 10.89V250z" fill="url(#b)"/><path d="M0 250h239.11L0 10.89z" fill="url(#c)"/></g><defs><linearGradient x1="0%" y1="100%" x2="100%" y2="0%" id="b"><stop stop-color="rgba(34, 135, 213, 0.13)" offset="0"/><stop stop-opacity="0" stop-color="rgba(34, 135, 213, 0.13)" offset=".66"/></linearGradient><linearGradient x1="100%" y1="100%" x2="0%" y2="0%" id="c"><stop stop-color="rgba(34, 135, 213, 0.13)" offset="0"/><stop stop-opacity="0" stop-color="rgba(34, 135, 213, 0.13)" offset=".66"/></linearGradient><mask id="a"><path fill="#fff" d="M0 0h1440v250H0z"/></mask></defs></svg>