<svg xmlns="http://www.w3.org/2000/svg" width="512" height="512" style="enable-background:new 0 0 512 512" xml:space="preserve"><path d="M295.387 317.898h-78.778c0 67.98-53.761 96.7-53.761 96.7h186.304s-53.765-28.72-53.765-96.7Zm0 0" style="stroke:none;fill-rule:nonzero;fill-opacity:1" fill="#344a5d" data-original="#344a5d"/><path d="M295.387 317.898h-47.082c0 67.98 44.648 96.7 44.648 96.7h56.2s-53.766-28.72-53.766-96.7Zm0 0" style="stroke:none;fill-rule:nonzero;fill-opacity:1" fill="#2a3f4f" data-original="#2a3f4f"/><path d="M500.828 332.832H11.172C5 332.832 0 327.832 0 321.66V11.172C0 5.004 5 0 11.172 0h489.656C506.996 0 512 5 512 11.172V321.66c0 6.172-5 11.172-11.172 11.172Zm0 0" style="stroke:none;fill-rule:nonzero;fill-opacity:1" fill="#2287d5" data-original="#87dbfd"/><path d="M365.168 429.047H146.832c-7.777 0-14.086-6.309-14.086-14.086v-.73c0-7.778 6.309-14.086 14.086-14.086h218.336c7.777 0 14.086 6.308 14.086 14.085v.73c0 7.778-6.309 14.087-14.086 14.087Zm0 0" style="stroke:none;fill-rule:nonzero;fill-opacity:1" fill="#3c5666" data-original="#3c5666"/><path d="M365.168 400.145h-39.324v28.902h39.324c7.777 0 14.086-6.309 14.086-14.086v-.73c0-7.782-6.309-14.086-14.086-14.086Zm0 0" style="stroke:none;fill-rule:nonzero;fill-opacity:1" fill="#194451" data-original="#194451"/><path d="M0 321.66c0 6.172 5 11.172 11.172 11.172h489.656c6.168 0 11.172-5 11.172-11.172v-29.883H0Zm0 0" style="stroke:none;fill-rule:nonzero;fill-opacity:1" fill="#3c5666" data-original="#3c5666"/><path d="M500.828 332.832H11.172C5 332.832 0 327.832 0 321.66V11.172C0 5.004 5 0 11.172 0h489.656C506.996 0 512 5 512 11.172V321.66c0 6.172-5 11.172-11.172 11.172Zm0 0" style="stroke:none;fill-rule:nonzero;fill-opacity:1" fill="#3c5666" data-original="#3c5666"/><path d="M500.828 0h-42.39v332.832h42.39c6.168 0 11.172-5 11.172-11.172V11.172C512 5 507 0 500.828 0Zm0 0" style="stroke:none;fill-rule:nonzero;fill-opacity:1" fill="#194451" data-original="#194451"/><path d="M0 321.66c0 6.172 5 11.172 11.172 11.172h489.656c6.168 0 11.172-5 11.172-11.172v-29.883H0Zm0 0" style="stroke:none;fill-rule:nonzero;fill-opacity:1" fill="#cdd6df" data-original="#cdd6df"/><path d="M458.438 332.832h42.39c6.168 0 11.172-5 11.172-11.172v-29.883h-53.563Zm0 0" style="stroke:none;fill-rule:nonzero;fill-opacity:1" fill="#aebcc4" data-original="#aebcc4"/><path d="M26.781 259.309V30.406c0-2 1.625-3.625 3.625-3.625h451.188a3.625 3.625 0 0 1 3.625 3.625V259.31a3.626 3.626 0 0 1-3.625 3.628H30.406a3.63 3.63 0 0 1-3.625-3.628Zm0 0" style="stroke:none;fill-rule:nonzero;fill-opacity:1" fill="#2287d5" data-original="#87dbfd"/><path d="M481.594 26.781h-49.86v236.156h49.86c2 0 3.625-1.625 3.625-3.628V30.406c0-2-1.625-3.625-3.625-3.625Zm0 0" style="stroke:none;fill-rule:nonzero;fill-opacity:1" fill="#2287d5" data-original="#59c2e9"/><path d="M130.867 189.723h-28.605a6.51 6.51 0 0 0-6.512 6.507v66.708h41.629V196.23a6.51 6.51 0 0 0-6.512-6.507ZM217.45 135.375h-28.61a6.513 6.513 0 0 0-6.512 6.512v121.047h41.629V141.887a6.51 6.51 0 0 0-6.508-6.512ZM304.027 87.664h-28.605a6.513 6.513 0 0 0-6.512 6.512v165.597h41.63V94.176c-.005-3.594-2.919-6.512-6.513-6.512ZM390.605 47.531H362a6.51 6.51 0 0 0-6.512 6.512v208.133h41.63V54.043a6.51 6.51 0 0 0-6.513-6.512Zm0 0" style="stroke:none;fill-rule:nonzero;fill-opacity:1" fill="#fcea68" data-original="#fcea68"/><path d="M436.277 338.34a7.699 7.699 0 0 1-5.46-2.262l-49.395-49.394a7.721 7.721 0 0 1 0-10.926 7.721 7.721 0 0 1 10.926 0l49.394 49.39a7.726 7.726 0 0 1-5.465 13.192Zm0 0" style="stroke:none;fill-rule:nonzero;fill-opacity:1" fill="#344a5d" data-original="#344a5d"/><path d="M412.027 162.117c-39.832-39.836-104.418-39.836-144.254 0-39.832 39.832-39.832 104.418 0 144.25 39.836 39.836 104.422 39.836 144.254 0 39.836-39.832 39.836-104.418 0-144.25Zm0 0" style="stroke:none;fill-rule:nonzero;fill-opacity:1" fill="#ee5646" data-original="#ee5646"/><path d="M412.031 162.113c-26.773-26.773-64.722-35.52-98.828-26.304 16.637 4.496 32.363 13.246 45.426 26.304 39.836 39.836 39.836 104.422 0 144.254-13.063 13.063-28.79 21.813-45.426 26.309 34.106 9.215 72.055.469 98.828-26.309 39.836-39.832 39.836-104.418 0-144.254Zm0 0" style="stroke:none;fill-rule:nonzero;fill-opacity:1" fill="#d83e3a" data-original="#d83e3a"/><path d="M393.148 180.996c-29.406-29.406-77.086-29.406-106.492 0-29.41 29.406-29.41 77.086 0 106.492 29.406 29.407 77.086 29.407 106.492 0 29.407-29.406 29.407-77.086 0-106.492Zm0 0" style="stroke:none;fill-rule:nonzero;fill-opacity:1" fill="#f2f2f2" data-original="#f2f2f2"/><path d="M393.152 180.996c-21.617-21.617-53.101-27.324-79.949-17.16a74.995 74.995 0 0 1 26.543 17.16c29.406 29.406 29.406 77.086 0 106.492a75.05 75.05 0 0 1-26.543 17.16c26.848 10.164 58.332 4.457 79.95-17.16 29.406-29.406 29.406-77.086 0-106.492Zm0 0" style="stroke:none;fill-rule:nonzero;fill-opacity:1" fill="#cdd6df" data-original="#cdd6df"/><path d="M312.566 244.898c0-9.96-21.312-6.906-21.312-22.64 0-9.895 8.496-13.281 16.133-13.281 3.918 0 12.617.93 12.617 5.312 0 1.527-1.063 4.582-3.453 4.582-2.059 0-3.586-2.523-9.164-2.523-4.782 0-7.504 1.925-7.504 5.113 0 8.23 21.316 5.379 21.316 22.574 0 9.496-6.64 14.406-15.804 14.406-8.7 0-15.336-4.378-15.336-8.23 0-1.86 1.722-4.649 3.785-4.649 2.719 0 4.511 5.114 11.285 5.114 3.984 0 7.437-1.793 7.437-5.778ZM335.742 230.16h10.094c1.726 0 2.723 1.66 2.723 3.453 0 1.528-.864 3.32-2.723 3.32h-10.094v13.344h18.79c1.726 0 2.722 1.793 2.722 3.852 0 1.793-.863 3.719-2.723 3.719h-23.636c-1.926 0-3.786-.93-3.786-2.723v-43.094c0-1.793 1.86-2.722 3.786-2.722h23.636c1.86 0 2.723 1.925 2.723 3.718 0 2.059-.996 3.852-2.723 3.852h-18.789ZM361.242 243.04v-18.524c0-11.09 6.774-15.207 15.54-15.207 8.761 0 15.6 4.117 15.6 15.207v18.523c0 11.09-6.835 15.207-15.6 15.207-8.766 0-15.54-4.117-15.54-15.207Zm22.512-18.524c0-5.246-2.656-7.637-6.973-7.637-4.383 0-6.906 2.39-6.906 7.637v18.523c0 5.246 2.523 7.637 6.906 7.637 4.317 0 6.973-2.39 6.973-7.637Zm0 0" style="stroke:none;fill-rule:nonzero;fill-opacity:1" fill="#3c5666" data-original="#3c5666"/><path d="m425.559 344.348 60.472 60.472a6.415 6.415 0 0 0 9.07 0l14.59-14.59a6.415 6.415 0 0 0 0-9.07l-60.472-60.473a6.415 6.415 0 0 0-9.07 0l-14.59 14.59a6.415 6.415 0 0 0 0 9.07Zm0 0" style="stroke:none;fill-rule:nonzero;fill-opacity:1" fill="#cc996a" data-original="#cc996a"/></svg>