<svg width="48" height="48" fill="none" xmlns="http://www.w3.org/2000/svg"><path d="M36.037 30.742c-1.173.626-2.827 1.153-4.803 1.533" stroke="#fff" stroke-width="2" stroke-miterlimit="10"/><path d="M37.873 35.956c.056.16.085.323.085.487 0 2.43-6.304 4.4-14.081 4.4-7.777 0-14.081-1.97-14.081-4.4 0-.152.024-.302.073-.45l10.734-30.49C21.119 4.037 22.39 3 23.877 3c1.486 0 2.758 1.037 3.274 2.503l10.722 30.453ZM36.196 45.243H34.44" stroke="#fff" stroke-width="2" stroke-miterlimit="10"/><path d="M37.958 45.243h4.321a3.595 3.595 0 0 0 3.253-5.128l-5.059-10.74a2.894 2.894 0 0 0-2.65-1.733h-2.878M32.674 45.243H5.471a3.596 3.596 0 0 1-3.253-5.128l5.06-10.74a2.891 2.891 0 0 1 2.65-1.733h2.88M22.034 13.553c-1.462 0-2.838-.217-4.123-.406M25.637 13.56h-1.76M33.025 22.186c-2.46.659-5.656 1.056-9.148 1.056-3.494 0-6.687-.397-9.148-1.056" stroke="#fff" stroke-width="2" stroke-miterlimit="10"/><path d="M25.528 32.893c-.541.019-1.092.03-1.651.03-5.187 0-9.717-.877-12.16-2.181M28.96 32.627c-.465.056-.943.105-1.431.146" stroke="#fff" stroke-width="2" stroke-miterlimit="10"/></svg>