<svg xmlns="http://www.w3.org/2000/svg" width="1440" height="560" preserveAspectRatio="none"><g mask="url(&quot;#a&quot;)" fill="none"><path fill="url(#b)" d="M0 0h1440v560H0z"/><path d="M1440 0h-245.79L1440 130.88z" fill="rgba(255, 255, 255, .1)"/><path d="M1194.21 0 1440 130.88v44.52L880.78 0z" fill="rgba(255, 255, 255, .075)"/><path d="M880.78 0 1440 175.4v191.22L679.21 0z" fill="rgba(255, 255, 255, .05)"/><path d="M679.21 0 1440 366.62v50.87L293.34 0z" fill="rgba(255, 255, 255, .025)"/><path d="M0 560h479.53L0 306.39z" fill="rgba(0, 0, 0, .1)"/><path d="M0 306.39 479.53 560h318.32L0 178.02z" fill="rgba(0, 0, 0, .075)"/><path d="M0 178.02 797.85 560h262.72L0 112.18z" fill="rgba(0, 0, 0, .05)"/><path d="M0 112.18 1060.57 560h19.7L0 38.91z" fill="rgba(0, 0, 0, .025)"/></g><defs><linearGradient x1="50%" y1="100%" x2="50%" y2="0%" gradientUnits="userSpaceOnUse" id="b"><stop stop-color="#0e2a47" offset="0"/><stop stop-color="rgba(34, 135, 213, 1)" offset="1"/></linearGradient><mask id="a"><path fill="#fff" d="M0 0h1440v560H0z"/></mask></defs></svg>