<svg xmlns="http://www.w3.org/2000/svg" version="1.1" xmlns:xlink="http://www.w3.org/1999/xlink" xmlns:svgjs="http://svgjs.com/svgjs" width="1440" height="560" preserveAspectRatio="none" viewBox="0 0 1440 560"><g mask="url(&quot;#SvgjsMask1005&quot;)" fill="none"><rect width="1440" height="560" x="0" y="0" fill="url(#SvgjsLinearGradient1006)"></rect><path d="M1440 0L1194.21 0L1440 130.88z" fill="rgba(255, 255, 255, .1)"></path><path d="M1194.21 0L1440 130.88L1440 175.4L880.78 0z" fill="rgba(255, 255, 255, .075)"></path><path d="M880.78 0L1440 175.4L1440 366.62L679.21 0z" fill="rgba(255, 255, 255, .05)"></path><path d="M679.21 0L1440 366.62L1440 417.49L293.34000000000003 0z" fill="rgba(255, 255, 255, .025)"></path><path d="M0 560L479.53 560L0 306.39z" fill="rgba(0, 0, 0, .1)"></path><path d="M0 306.39L479.53 560L797.8499999999999 560L0 178.01999999999998z" fill="rgba(0, 0, 0, .075)"></path><path d="M0 178.01999999999998L797.8499999999999 560L1060.57 560L0 112.17999999999998z" fill="rgba(0, 0, 0, .05)"></path><path d="M0 112.17999999999995L1060.57 560L1080.27 560L0 38.909999999999954z" fill="rgba(0, 0, 0, .025)"></path></g><defs><mask id="SvgjsMask1005"><rect width="1440" height="560" fill="#ffffff"></rect></mask><linearGradient x1="50%" y1="100%" x2="50%" y2="0%" gradientUnits="userSpaceOnUse" id="SvgjsLinearGradient1006"><stop stop-color="#0e2a47" offset="0"></stop><stop stop-color="rgba(34, 135, 213, 1)" offset="1"></stop></linearGradient></defs></svg>