<svg xmlns="http://www.w3.org/2000/svg" version="1.1" xmlns:xlink="http://www.w3.org/1999/xlink" xmlns:svgjs="http://svgjs.com/svgjs" width="1440" height="560" preserveAspectRatio="none" viewBox="0 0 1440 560"><g mask="url(&quot;#SvgjsMask1051&quot;)" fill="none"><rect width="1440" height="560" x="0" y="0" fill="rgba(26, 101, 159, 1)"></rect><path d="M0,365.129C80.423,368.962,172.421,416.779,236.629,368.201C301.627,319.026,267.615,211.814,300.95,137.439C333.922,63.873,432.175,18.84,429.323,-61.727C426.495,-141.626,351.656,-201.524,287.274,-248.924C230.959,-290.386,155.541,-283.217,91.216,-310.654C14.811,-343.244,-41.799,-430.061,-124.687,-424.644C-208.462,-419.169,-283.471,-355.128,-326.973,-283.324C-368.239,-215.209,-358.861,-129.801,-351.347,-50.516C-345.161,14.758,-307.912,69.012,-287.673,131.376C-264.087,204.054,-281.863,298.13,-222.563,346.315C-163.587,394.237,-75.905,361.511,0,365.129" fill="#17598c"></path><path d="M1440 1279.013C1570.9470000000001 1304.871 1708.655 1214.6280000000002 1795.644 1113.392 1875.8319999999999 1020.071 1844.473 879.252 1883.708 762.635 1917.45 662.344 1994.941 582.963 2009.371 478.137 2027.171 348.836 2048.266 204.346 1975.476 96.00799999999998 1901.305-14.384999999999991 1762.616-78.32799999999997 1629.882-86.67899999999997 1505.465-94.50699999999995 1408.767 11.729000000000042 1291.117 52.95100000000002 1181.607 91.32100000000003 1033.824 54.786 963.25 146.894 892.153 239.68400000000003 960.611 373.6 955.935 490.402 951.857 592.263 898.177 695.4300000000001 937.527 789.472 977.1890000000001 884.26 1090.8609999999999 917.049 1164.458 988.752 1261.987 1083.771 1306.416 1252.634 1440 1279.013" fill="#1d71b2"></path></g><defs><mask id="SvgjsMask1051"><rect width="1440" height="560" fill="#ffffff"></rect></mask></defs></svg>