<svg xmlns="http://www.w3.org/2000/svg" width="1440" height="560" preserveAspectRatio="none"><g mask="url(&quot;#a&quot;)" fill="none"><path fill="rgba(26, 101, 159, 1)" d="M0 0h1440v560H0z"/><path d="M0 365.129c80.423 3.833 172.421 51.65 236.629 3.072 64.998-49.175 30.986-156.387 64.321-230.762C333.922 63.873 432.175 18.84 429.323-61.727c-2.828-79.899-77.667-139.797-142.049-187.197-56.315-41.462-131.733-34.293-196.058-61.73-76.405-32.59-133.015-119.407-215.903-113.99-83.775 5.475-158.784 69.516-202.286 141.32-41.266 68.115-31.888 153.523-24.374 232.808 6.186 65.274 43.435 119.528 63.674 181.892 23.586 72.678 5.81 166.754 65.11 214.939C-163.587 394.237-75.905 361.511 0 365.129" fill="#17598c"/><path d="M1440 1279.013c130.947 25.858 268.655-64.385 355.644-165.621 80.188-93.321 48.829-234.14 88.064-350.757 33.742-100.291 111.233-179.672 125.663-284.498 17.8-129.301 38.895-273.791-33.895-382.129-74.171-110.393-212.86-174.336-345.594-182.687-124.417-7.828-221.115 98.408-338.765 139.63-109.51 38.37-257.293 1.835-327.867 93.943-71.097 92.79-2.639 226.706-7.315 343.508-4.078 101.861-57.758 205.028-18.408 299.07 39.662 94.788 153.334 127.577 226.931 199.28 97.529 95.019 141.958 263.882 275.542 290.261" fill="#1d71b2"/></g><defs><mask id="a"><path fill="#fff" d="M0 0h1440v560H0z"/></mask></defs></svg>