<svg xmlns="http://www.w3.org/2000/svg" viewBox="0 0 511.997 511.997" style="enable-background:new 0 0 511.997 511.997" xml:space="preserve"><path style="fill:#578cad" d="M361.728 386.863h120.124c12.137 0 21.976-9.837 21.976-21.974v-14.65c0-12.138-9.838-21.976-21.976-21.976h-18.461c0-.044.007-.087.007-.132v-14.258c0-30.544-24.762-55.306-55.305-55.306H103.908c-30.543 0-55.305 24.762-55.305 55.306v14.258c0 .045.007.088.007.132H30.148c-12.137 0-21.976 9.837-21.976 21.976v14.65c0 12.137 9.838 21.974 21.976 21.974h305.43"/><path style="fill:#90c8ec" d="M100.688 258.568h310.626C397.919 184.933 333.504 129.083 256 129.083c-77.502-.001-141.917 55.85-155.312 129.485z"/><path style="fill:#3a5d74" d="M335.964 258.568v-32.107c0-12.136-9.838-21.976-21.973-21.976H198.01c-12.135 0-21.973 9.839-21.973 21.976v32.107h159.927zM392.733 386.863H119.267c-11.798 0-21.364 9.566-21.364 21.364 0 11.8 9.566 21.364 21.364 21.364h273.466c11.801 0 21.364-9.564 21.364-21.364 0-11.797-9.563-21.364-21.364-21.364z"/><path style="fill:#ff4d30" d="M287.741 44.56c0 17.53-14.212 31.741-31.742 31.741S224.258 62.09 224.258 44.56c0-17.533 14.212-31.743 31.742-31.743s31.741 14.21 31.741 31.743z"/><g style="opacity:.2"><path style="fill:#231f20" d="M103.908 258.568c-30.543 0-55.305 24.762-55.305 55.306v14.258c0 .045.007.088.007.132H30.148c-12.137 0-21.976 9.837-21.976 21.976v14.65c0 12.137 9.838 21.974 21.976 21.974h25.606c-12.137 0-21.976-9.837-21.976-21.974v-14.65c0-14.211 9.838-16.527 21.976-16.527h2.275c4.05-.126 16.181-1.544 16.181-14.028v-.362l.012-5.905c.004-.247.01-.49.019-.715.625-30.002 25.125-54.135 55.276-54.135h-25.609z"/></g><g style="opacity:.2"><path style="fill:#231f20" d="M268.803 129.604a159.929 159.929 0 0 0-12.803-.522c-77.502 0-141.917 55.851-155.312 129.485h25.606c12.65-69.538 70.805-123.206 142.509-128.963z"/></g><g style="opacity:.2"><path style="fill:#231f20" d="M223.616 204.485H198.01c-12.135 0-21.973 9.839-21.973 21.976v32.107h25.606v-32.107c0-12.135 9.838-21.976 21.973-21.976z"/></g><g style="opacity:.2"><path style="fill:#231f20" d="M123.509 408.229c0-11.798 9.566-21.364 21.364-21.364h-25.606c-11.798 0-21.364 9.566-21.364 21.364 0 11.8 9.566 21.364 21.364 21.364h25.606c-11.798-.001-21.364-9.565-21.364-21.364z"/></g><g style="opacity:.2"><path style="fill:#231f20" d="M249.865 44.56c0-12.975 7.786-24.123 18.939-29.046a31.623 31.623 0 0 0-12.803-2.697c-17.53 0-31.742 14.21-31.742 31.743 0 17.53 14.212 31.741 31.742 31.741 4.557 0 8.886-.968 12.803-2.697-11.153-4.923-18.939-16.072-18.939-29.044z"/></g><path style="fill:#231f20" d="M481.852 320.091h-10.284v-6.217c0-31.575-23.176-57.831-53.408-62.671-16.049-73.199-79.237-126.451-153.989-130.088V83.629c18.102-3.781 31.742-19.861 31.742-39.068 0-22.009-17.906-39.915-39.914-39.915s-39.914 17.906-39.914 39.915c0 19.208 13.64 35.287 31.742 39.068v37.486c-74.749 3.637-137.937 56.889-153.987 130.087-30.233 4.839-53.41 31.096-53.41 62.672v6.217H30.147C13.524 320.091 0 333.616 0 350.239v14.65c0 16.623 13.524 30.147 30.148 30.147h62.703a29.342 29.342 0 0 0-3.122 13.192c0 16.286 13.25 29.536 29.536 29.536h7.013L90.95 494.88a8.172 8.172 0 0 0 6.943 12.472 8.167 8.167 0 0 0 6.958-3.875l40.646-65.714h102.331v61.414a8.171 8.171 0 0 0 8.172 8.172 8.171 8.171 0 0 0 8.172-8.172v-61.414h102.327l40.646 65.714a8.167 8.167 0 0 0 11.249 2.652 8.174 8.174 0 0 0 2.652-11.249l-35.329-57.116h7.013c16.287 0 29.536-13.25 29.536-29.536 0-4.74-1.129-9.218-3.122-13.192h62.703c16.623 0 30.148-13.523 30.148-30.147v-14.65c.005-16.623-13.519-30.148-30.143-30.148zM232.431 44.56c0-12.997 10.573-23.571 23.57-23.571s23.57 10.574 23.57 23.571c0 12.996-10.573 23.569-23.57 23.569s-23.57-10.573-23.57-23.569zm23.568 92.694c69.085 0 128.646 47.018 145.195 113.141h-57.058V226.46c0-16.623-13.523-30.148-30.146-30.148H198.01c-16.622 0-30.146 13.524-30.146 30.148v23.935h-57.056c16.547-66.121 76.107-113.141 145.191-113.141zm71.792 113.141H184.209V226.46c0-7.611 6.191-13.803 13.801-13.803h115.98c7.61 0 13.801 6.192 13.801 13.803v23.935zM495.656 364.89c0 7.61-6.192 13.802-13.803 13.802H361.728c-4.514 0-8.172 3.658-8.172 8.172s3.658 8.172 8.172 8.172h31.005c7.274 0 13.192 5.919 13.192 13.192 0 7.274-5.919 13.192-13.192 13.192H119.267c-7.274 0-13.192-5.918-13.192-13.192s5.919-13.192 13.192-13.192h216.31c4.514 0 8.172-3.658 8.172-8.172s-3.658-8.172-8.172-8.172H30.148c-7.611 0-13.803-6.192-13.803-13.802v-14.65c0-7.611 6.192-13.803 13.803-13.803h18.461a8.171 8.171 0 0 0 8.165-8.503v-14.058c0-25.99 21.143-47.134 47.133-47.134H408.091c25.99 0 47.133 21.144 47.133 47.134v14.075a8.171 8.171 0 0 0 8.165 8.487h18.461c7.611 0 13.803 6.192 13.803 13.803v14.65h.003z"/><path style="fill:#231f20" d="M417.149 314.543H94.851c-4.514 0-8.172 3.658-8.172 8.172s3.658 8.172 8.172 8.172H417.15a8.173 8.173 0 0 0-.001-16.344z"/></svg>